<?xml version="1.0" encoding="UTF-8" standalone="no"?>
<svg width="15px" height="15px" viewBox="0 0 15 15" version="1.1" xmlns="http://www.w3.org/2000/svg" xmlns:xlink="http://www.w3.org/1999/xlink">
    <!-- Generator: Sketch 44.1 (41455) - http://www.bohemiancoding.com/sketch -->
    <title>i-associated</title>
    <desc>Created with Sketch.</desc>
    <defs></defs>
    <g id="Page-1" stroke="none" stroke-width="1" fill="none" fill-rule="evenodd">
        <g id="01-客户管理" transform="translate(-1112.000000, -239.000000)" fill-rule="nonzero" fill="#009EF9">
            <path d="M1119.5,245 C1119.77614,245 1120,245.223858 1120,245.5 C1120,245.776142 1119.77614,246 1119.5,246 L1117.5,246 C1117.22386,246 1117,246.223858 1117,246.5 L1117,252.5 C1117,252.776142 1117.22386,253 1117.5,253 L1121.5,253 C1121.77614,253 1122,252.776142 1122,252.5 L1122,249.5 C1122,249.223858 1122.22386,249 1122.5,249 C1122.77614,249 1123,249.223858 1123,249.5 L1123,252.5 C1123,253.328427 1122.32843,254 1121.5,254 L1117.5,254 C1116.67157,254 1116,253.328427 1116,252.5 L1116,246.5 C1116,245.671573 1116.67157,245 1117.5,245 L1119.5,245 Z M1119.5,248 C1119.22386,248 1119,247.776142 1119,247.5 C1119,247.223858 1119.22386,247 1119.5,247 L1121.5,247 C1121.77614,247 1122,246.776142 1122,246.5 L1122,240.5 C1122,240.223858 1121.77614,240 1121.5,240 L1117.5,240 C1117.22386,240 1117,240.223858 1117,240.5 L1117,243.5 C1117,243.776142 1116.77614,244 1116.5,244 C1116.22386,244 1116,243.776142 1116,243.5 L1116,240.5 C1116,239.671573 1116.67157,239 1117.5,239 L1121.5,239 C1122.32843,239 1123,239.671573 1123,240.5 L1123,246.5 C1123,247.328427 1122.32843,248 1121.5,248 L1119.5,248 Z" id="i-associated" transform="translate(1119.500000, 246.500000) rotate(-315.000000) translate(-1119.500000, -246.500000) "></path>
        </g>
    </g>
</svg>