<?xml version="1.0" encoding="UTF-8" standalone="no"?>
<svg width="16px" height="18px" viewBox="0 0 16 18" version="1.1" xmlns="http://www.w3.org/2000/svg" xmlns:xlink="http://www.w3.org/1999/xlink">
    <!-- Generator: Sketch 44.1 (41455) - http://www.bohemiancoding.com/sketch -->
    <title>i-calendar</title>
    <desc>Created with Sketch.</desc>
    <defs></defs>
    <g id="Page-1" stroke="none" stroke-width="1" fill="none" fill-rule="evenodd">
        <g id="01-客户管理-编辑" transform="translate(-890.000000, -233.000000)" fill="#A5A5A5">
            <path d="M901,236 L895,236 L895,237.502301 C895,237.777173 894.768066,238 894.5,238 C894.223858,238 894,237.785156 894,237.502301 L894,236 L891.99406,236 C891.446062,236 891,236.445793 891,236.99406 L891,239 L905,239 L905,236.99406 C905,236.446062 904.554207,236 904.00594,236 L902,236 L902,237.502301 C902,237.777173 901.768066,238 901.5,238 C901.223858,238 901,237.785156 901,237.502301 L901,236 Z M902,235 L904.00594,235 C905.107229,235 906,235.894514 906,236.99406 L906,249.00594 C906,250.107229 905.105486,251 904.00594,251 L891.99406,251 C890.892771,251 890,250.105486 890,249.00594 L890,236.99406 C890,235.892771 890.894514,235 891.99406,235 L894,235 L894,233.497699 C894,233.222827 894.231934,233 894.5,233 C894.776142,233 895,233.214844 895,233.497699 L895,235 L901,235 L901,233.497699 C901,233.222827 901.231934,233 901.5,233 C901.776142,233 902,233.214844 902,233.497699 L902,235 Z M905,240 L891,240 L891,249.00594 C891,249.553938 891.445793,250 891.99406,250 L904.00594,250 C904.553938,250 905,249.554207 905,249.00594 L905,240 Z M893,243.5 C893,243.223858 893.214035,243 893.504684,243 L894.495316,243 C894.774045,243 895,243.231934 895,243.5 C895,243.776142 894.785965,244 894.495316,244 L893.504684,244 C893.225955,244 893,243.768066 893,243.5 Z M893,246.5 C893,246.223858 893.214035,246 893.504684,246 L894.495316,246 C894.774045,246 895,246.231934 895,246.5 C895,246.776142 894.785965,247 894.495316,247 L893.504684,247 C893.225955,247 893,246.768066 893,246.5 Z M897,243.5 C897,243.223858 897.214035,243 897.504684,243 L898.495316,243 C898.774045,243 899,243.231934 899,243.5 C899,243.776142 898.785965,244 898.495316,244 L897.504684,244 C897.225955,244 897,243.768066 897,243.5 Z M897,246.5 C897,246.223858 897.214035,246 897.504684,246 L898.495316,246 C898.774045,246 899,246.231934 899,246.5 C899,246.776142 898.785965,247 898.495316,247 L897.504684,247 C897.225955,247 897,246.768066 897,246.5 Z M901,243.5 C901,243.223858 901.214035,243 901.504684,243 L902.495316,243 C902.774045,243 903,243.231934 903,243.5 C903,243.776142 902.785965,244 902.495316,244 L901.504684,244 C901.225955,244 901,243.768066 901,243.5 Z M901,246.5 C901,246.223858 901.214035,246 901.504684,246 L902.495316,246 C902.774045,246 903,246.231934 903,246.5 C903,246.776142 902.785965,247 902.495316,247 L901.504684,247 C901.225955,247 901,246.768066 901,246.5 Z" id="i-calendar"></path>
        </g>
    </g>
</svg>