<?xml version="1.0" encoding="UTF-8"?>
<svg width="14px" height="15px" viewBox="0 0 14 15" version="1.1" xmlns="http://www.w3.org/2000/svg" xmlns:xlink="http://www.w3.org/1999/xlink">
    <!-- Generator: Sketch 44.1 (41455) - http://www.bohemiancoding.com/sketch -->
    <title>i-change</title>
    <desc>Created with Sketch.</desc>
    <defs></defs>
    <g id="Page-1" stroke="none" stroke-width="1" fill="none" fill-rule="evenodd">
        <g id="01-客户管理" transform="translate(-951.000000, -280.000000)" fill-rule="nonzero" fill="#009EF9">
            <path d="M958.293102,283.176416 L952.5,283.176416 C952.197715,283.176416 952,283.324703 952,283.426416 L952,290.926416 C952,291.02813 952.197715,291.176416 952.5,291.176416 L953.5,291.176416 C953.776142,291.176416 954,291.400274 954,291.676416 C954,291.952559 953.776142,292.176416 953.5,292.176416 L952.5,292.176416 C951.697715,292.176416 951,291.65313 951,290.926416 L951,283.426416 C951,282.699703 951.697715,282.176416 952.5,282.176416 L958.403295,282.176416 L957.080432,280.853553 C956.885169,280.658291 956.885169,280.341709 957.080432,280.146447 C957.275694,279.951184 957.592276,279.951184 957.787538,280.146447 L960.262412,282.62132 L957.787538,285.096194 C957.592276,285.291456 957.275694,285.291456 957.080432,285.096194 C956.885169,284.900932 956.885169,284.584349 957.080432,284.389087 L958.293102,283.176416 Z M957.805759,292.176416 L959.03288,293.403538 C959.228142,293.5988 959.228142,293.915382 959.03288,294.110644 C958.837618,294.305907 958.521036,294.305907 958.325774,294.110644 L955.8509,291.635771 L958.325774,289.160897 C958.521036,288.965635 958.837618,288.965635 959.03288,289.160897 C959.228142,289.356159 959.228142,289.672742 959.03288,289.868004 L957.724468,291.176416 L963.5,291.176416 C963.802285,291.176416 964,291.02813 964,290.926416 L964,283.426416 C964,283.324703 963.802285,283.176416 963.5,283.176416 L962.5,283.176416 C962.223858,283.176416 962,282.952559 962,282.676416 C962,282.400274 962.223858,282.176416 962.5,282.176416 L963.5,282.176416 C964.302285,282.176416 965,282.699703 965,283.426416 L965,290.926416 C965,291.65313 964.302285,292.176416 963.5,292.176416 L957.805759,292.176416 Z" id="i-change"></path>
        </g>
    </g>
</svg>