<?xml version="1.0" encoding="UTF-8" standalone="no"?>
<svg width="17px" height="17px" viewBox="0 0 17 17" version="1.1" xmlns="http://www.w3.org/2000/svg" xmlns:xlink="http://www.w3.org/1999/xlink">
    <!-- Generator: Sketch 44.1 (41455) - http://www.bohemiancoding.com/sketch -->
    <title>i-editor1</title>
    <desc>Created with Sketch.</desc>
    <defs></defs>
    <g id="Page-1" stroke="none" stroke-width="1" fill="none" fill-rule="evenodd">
        <g id="01-客户管理--客户详情" transform="translate(-1233.000000, -119.000000)" fill-rule="nonzero" fill="#FECA00">
            <path d="M1242.5,119.528804 C1242.77614,119.528804 1243,119.752661 1243,120.028804 C1243,120.304946 1242.77614,120.528804 1242.5,120.528804 L1236.49942,120.528804 C1235.11165,120.528804 1234,121.643466 1234,123.028226 L1234,132.029381 C1234,133.417154 1235.11466,134.528804 1236.49942,134.528804 L1245.50058,134.528804 C1246.88835,134.528804 1248,133.414141 1248,132.029381 L1248,126.028804 C1248,125.752661 1248.22386,125.528804 1248.5,125.528804 C1248.77614,125.528804 1249,125.752661 1249,126.028804 L1249,132.029381 C1249,133.965821 1247.44124,135.528804 1245.50058,135.528804 L1236.49942,135.528804 C1234.56298,135.528804 1233,133.970046 1233,132.029381 L1233,123.028226 C1233,121.091786 1234.55876,119.528804 1236.49942,119.528804 L1242.5,119.528804 Z M1239.60355,129.632357 C1239.40829,129.827619 1239.09171,129.827619 1238.89645,129.632357 C1238.70118,129.437095 1238.70118,129.120512 1238.89645,128.92525 L1248.67525,119.146447 C1248.87051,118.951184 1249.18709,118.951184 1249.38236,119.146447 C1249.57762,119.341709 1249.57762,119.658291 1249.38236,119.853553 L1239.60355,129.632357 Z" id="i-editor1"></path>
        </g>
    </g>
</svg>