<?xml version="1.0" encoding="UTF-8" standalone="no"?>
<svg width="13px" height="13px" viewBox="0 0 13 13" version="1.1" xmlns="http://www.w3.org/2000/svg" xmlns:xlink="http://www.w3.org/1999/xlink">
    <!-- Generator: Sketch 44.1 (41455) - http://www.bohemiancoding.com/sketch -->
    <title>i-exit1</title>
    <desc>Created with Sketch.</desc>
    <defs></defs>
    <g id="Page-1" stroke="none" stroke-width="1" fill="none" fill-rule="evenodd">
        <g id="01-客户管理-绑定设备" transform="translate(-787.000000, -275.000000)" fill="#666666">
            <g id="Group-6-Copy" transform="translate(460.000000, 261.000000)">
                <g id="Group-5">
                    <path d="M333.873902,20.1960541 L339.435082,14.634874 C339.580264,14.4896923 339.582893,14.2512093 339.437422,14.105739 C339.296207,13.9645231 339.05505,13.9613166 338.908287,14.1080795 L333.347107,19.6692596 L327.785927,14.1080795 C327.639164,13.9613166 327.398008,13.9645231 327.256792,14.105739 C327.111322,14.2512093 327.113951,14.4896923 327.259133,14.634874 L332.820313,20.1960541 L327.259133,25.7572342 C327.113951,25.9024159 327.111322,26.1408989 327.256792,26.2863692 C327.398008,26.4275851 327.639164,26.4307916 327.785927,26.2840288 L333.347107,20.7228487 L338.908287,26.2840288 C339.05505,26.4307916 339.296207,26.4275851 339.437422,26.2863692 C339.582893,26.1408989 339.580264,25.9024159 339.435082,25.7572342 L333.873902,20.1960541 Z" id="i-exit1"></path>
                </g>
            </g>
        </g>
    </g>
</svg>