<?xml version="1.0" encoding="UTF-8" standalone="no"?>
<svg width="13px" height="13px" viewBox="0 0 13 13" version="1.1" xmlns="http://www.w3.org/2000/svg" xmlns:xlink="http://www.w3.org/1999/xlink">
    <!-- Generator: Sketch 44.1 (41455) - http://www.bohemiancoding.com/sketch -->
    <title>i-ok</title>
    <desc>Created with Sketch.</desc>
    <defs></defs>
    <g id="Page-1" stroke="none" stroke-width="1" fill="none" fill-rule="evenodd">
        <g id="01-客户管理-编辑" transform="translate(-430.000000, -500.000000)" fill="#FECA00">
            <g id="选择科室弹窗" transform="translate(415.000000, 410.000000)">
                <path d="M15,90.9985023 C15,90.4470447 15.4474894,90 15.9985023,90 L27.0014977,90 C27.5529553,90 28,90.4474894 28,90.9985023 L28,102.001498 C28,102.552955 27.5525106,103 27.0014977,103 L15.9985023,103 C15.4470447,103 15,102.552511 15,102.001498 L15,90.9985023 Z M25.6589328,93.4364611 L21.0380796,98.0573142 C20.8407626,98.2546313 20.528085,98.2553607 20.3304884,98.0577642 L17.7787528,95.5060285 C17.5834906,95.3107664 17.2669082,95.3107664 17.071646,95.5060285 C16.8763839,95.7012907 16.8763839,96.0178732 17.071646,96.2131353 L19.6233817,98.7648709 C20.212243,99.3537323 21.1580817,99.3515257 21.7451864,98.764421 L26.3660396,94.1435678 C26.5613017,93.9483057 26.5613017,93.6317232 26.3660396,93.4364611 C26.1707774,93.2411989 25.8541949,93.2411989 25.6589328,93.4364611 Z" id="i-ok"></path>
            </g>
        </g>
    </g>
</svg>