<?xml version="1.0" encoding="UTF-8" standalone="no"?>
<svg width="21px" height="21px" viewBox="0 0 21 21" version="1.1" xmlns="http://www.w3.org/2000/svg" xmlns:xlink="http://www.w3.org/1999/xlink">
    <!-- Generator: Sketch 44.1 (41455) - http://www.bohemiancoding.com/sketch -->
    <title>i-paint</title>
    <desc>Created with Sketch.</desc>
    <defs></defs>
    <g id="Page-1" stroke="none" stroke-width="1" fill="none" fill-rule="evenodd">
        <g id="02-服务包管理" transform="translate(-19.000000, -361.000000)" fill-rule="nonzero" fill="#FECA00">
            <path d="M28.9435874,371 L28.9435874,368 C28.9435874,367.723858 29.1674451,367.5 29.4435874,367.5 C29.7197298,367.5 29.9435874,367.723858 29.9435874,368 L29.9435874,371 L33.2209209,371 C33.4970633,371 33.7209209,371.223858 33.7209209,371.5 C33.7209209,371.776142 33.4970633,372 33.2209209,372 L29.9435874,372 L29.9435874,375.5 C29.9435874,375.776142 29.7197298,376 29.4435874,376 C29.1674451,376 28.9435874,375.776142 28.9435874,375.5 L28.9435874,372 L25.7209209,372 C25.4447785,372 25.2209209,371.776142 25.2209209,371.5 C25.2209209,371.223858 25.4447785,371 25.7209209,371 L28.9435874,371 Z M28.0915252,362.301873 C28.8694043,361.523994 30.1317273,361.525126 30.9084748,362.301873 L38.6981269,370.091525 C39.4760061,370.869404 39.4748744,372.131727 38.6981269,372.908475 L30.9084748,380.698127 C30.1305957,381.476006 28.8682727,381.474874 28.0915252,380.698127 L20.3018731,372.908475 C19.5239939,372.130596 19.5251256,370.868273 20.3018731,370.091525 L28.0915252,362.301873 Z M21.0089799,370.798632 C20.622278,371.185334 20.6221035,371.814492 21.0089799,372.201368 L28.798632,379.99102 C29.1853338,380.377722 29.8144916,380.377897 30.201368,379.99102 L37.9910201,372.201368 C38.377722,371.814666 38.3778965,371.185508 37.9910201,370.798632 L30.201368,363.00898 C29.8146662,362.622278 29.1855084,362.622103 28.798632,363.00898 L21.0089799,370.798632 Z" id="i-paint"></path>
        </g>
    </g>
</svg>