<?xml version="1.0" encoding="UTF-8" standalone="no"?>
<svg width="21px" height="19px" viewBox="0 0 21 19" version="1.1" xmlns="http://www.w3.org/2000/svg" xmlns:xlink="http://www.w3.org/1999/xlink">
    <!-- Generator: Sketch 44.1 (41455) - http://www.bohemiancoding.com/sketch -->
    <title>i_set</title>
    <desc>Created with Sketch.</desc>
    <defs></defs>
    <g id="Page-1" stroke="none" stroke-width="1" fill="none" fill-rule="evenodd">
        <g id="02-服务包管理" transform="translate(-20.000000, -500.000000)" fill-rule="nonzero" fill="#FECA00">
            <path d="M38.5914094,508.147403 L37.5344771,508.147403 L37.4408454,507.766865 C37.1181771,506.455478 36.4403327,505.279046 35.4640058,504.335574 L35.1835097,504.064517 L35.3781709,503.726498 L35.7112985,503.148039 C35.9177259,502.789198 35.6311652,502.165545 34.9473901,501.769381 C34.6456827,501.594861 34.3167295,501.5 34.0297382,501.5 C33.7090478,501.5 33.4832675,501.613319 33.3798416,501.792843 L32.8514797,502.710996 L32.4749526,502.602345 C31.192689,502.232335 29.8091725,502.232335 28.5253057,502.602387 L28.1487465,502.710924 L27.9533854,502.371202 L27.6209318,501.793084 C27.5172524,501.613148 27.2916908,501.5 26.9706654,501.5 C26.6837733,501.5 26.3545403,501.594932 26.0534017,501.769256 C25.369325,502.165406 25.0826477,502.788835 25.2888159,503.147389 L25.8170655,504.06419 L25.5363684,504.33531 C24.5598126,505.278545 23.8822893,506.45473 23.5592621,507.767242 L23.4656137,508.147751 L22.4089942,508.147751 C21.9992305,508.147751 21.6052632,508.707413 21.6052632,509.500029 C21.6052632,510.292768 21.9993571,510.852829 22.4089942,510.852829 L23.4655211,510.852829 L23.559194,511.233296 C23.8821501,512.545031 24.5598978,513.721338 25.5363703,514.664806 L25.8169367,514.935889 L25.622209,515.27395 L25.2889218,515.852558 C25.0826481,516.2111 25.3693449,516.834508 26.0531233,517.230732 C26.3545122,517.405061 26.6838106,517.5 26.9706076,517.5 C27.2912624,517.5 27.5172216,517.386586 27.6207254,517.207348 L28.1487796,516.289645 L28.525224,516.398128 C29.8090354,516.768095 31.1928247,516.767912 32.4743282,516.397486 L32.8509092,516.288633 L33.0464913,516.628354 L33.3797706,517.20725 C33.4831379,517.386853 33.7086797,517.499942 34.0296804,517.499942 C34.3166489,517.499942 34.6456425,517.405093 34.9470491,517.230841 C35.6311331,516.834543 35.9176285,516.21119 35.7113257,515.852631 L35.1834575,514.935739 L35.4640054,514.664719 C36.4404191,513.721464 37.1179388,512.545267 37.440791,511.233295 L37.5344309,510.852771 L38.590658,510.852771 C39.0001907,510.852771 39.3944712,510.292725 39.394736,509.499537 C39.3950611,509.124737 39.3015772,508.7743 39.1390399,508.518085 C38.9833981,508.272133 38.7827778,508.147403 38.5914094,508.147403 Z M38.308524,507.147403 L38.5914094,507.147403 C39.1473584,507.147403 39.6546453,507.462795 39.983758,507.982874 C40.252053,508.405798 40.3952196,508.942478 40.3947358,509.500138 C40.3943069,510.785241 39.6427512,511.852771 38.590658,511.852771 L38.3084683,511.852771 C37.9461095,513.07059 37.3087154,514.176651 36.4345901,515.104658 L36.5780295,515.353808 C37.1033699,516.266862 36.5581188,517.453211 35.4479385,518.096352 C34.9991486,518.355811 34.4992153,518.499942 34.0296804,518.499942 C33.3709889,518.499942 32.807294,518.217299 32.5130979,517.706127 L32.3704207,517.458301 C31.1454423,517.747682 29.8561836,517.747816 28.6297442,517.458842 L28.4870939,517.706753 C28.1923793,518.217115 27.6287748,518.5 26.9706076,518.5 C26.5012107,518.5 26.0008886,518.355754 25.5520909,518.09616 C24.4423907,517.453131 23.8968605,516.266902 24.4222644,515.353655 L24.565707,515.104629 C23.691582,514.176517 23.0540429,513.070448 22.6915787,511.852829 L22.4089942,511.852829 C21.356617,511.852829 20.6052632,510.785052 20.6052632,509.500029 C20.6052632,508.215086 21.3566004,507.147751 22.4089942,507.147751 L22.6915929,507.147751 C23.0540588,505.929548 23.6914669,504.823439 24.5657015,503.895418 L24.4221319,503.646247 C23.8969528,502.73289 24.4424685,501.546573 25.5523356,500.903847 C26.0007229,500.644283 26.5011097,500.5 26.9706654,500.5 C27.6293284,500.5 28.1928651,500.782685 28.4876014,501.294201 L28.6298913,501.541635 C29.8562807,501.252599 31.145311,501.252574 32.370673,501.541586 L32.5132302,501.293859 C32.8075694,500.782954 33.3713331,500.5 34.0297382,500.5 C34.4993559,500.5 34.9993295,500.644179 35.4484008,500.90394 C36.5581647,501.546912 37.1034035,502.733536 36.5779895,503.646884 L36.4346563,503.895775 C37.3086595,504.823877 37.9462422,505.929995 38.308524,507.147403 Z M30.5,506.222222 C28.7046708,506.222222 27.2421053,507.692449 27.2421053,509.49995 C27.2421053,511.307348 28.7047661,512.777778 30.5,512.777778 C32.2952339,512.777778 33.7578947,511.307348 33.7578947,509.49995 C33.7578947,507.692449 32.2953292,506.222222 30.5,506.222222 Z M30.5,505.222222 C32.8487869,505.222222 34.7578947,507.141331 34.7578947,509.49995 C34.7578947,511.85845 32.848708,513.777778 30.5,513.777778 C28.151292,513.777778 26.2421053,511.85845 26.2421053,509.49995 C26.2421053,507.141331 28.1512131,505.222222 30.5,505.222222 Z" id="i_set"></path>
        </g>
    </g>
</svg>