<?xml version="1.0" encoding="UTF-8" standalone="no"?>
<svg width="19px" height="19px" viewBox="0 0 19 19" version="1.1" xmlns="http://www.w3.org/2000/svg" xmlns:xlink="http://www.w3.org/1999/xlink">
    <!-- Generator: Sketch 44.1 (41455) - http://www.bohemiancoding.com/sketch -->
    <title>i-workbench-active</title>
    <desc>Created with Sketch.</desc>
    <defs></defs>
    <g id="Page-1" stroke="none" stroke-width="1" fill="none" fill-rule="evenodd">
        <g id="02-服务包管理" transform="translate(-20.000000, -71.000000)" fill-rule="nonzero" fill="#FECA00">
            <path d="M21,73.8294047 L21,77.833202 C21,78.3889817 21.443529,78.8313034 21.9981014,78.8313034 L26.0018986,78.8313034 C26.5576783,78.8313034 27,78.3877743 27,77.833202 L27,73.8294047 C27,73.2736251 26.556471,72.8313034 26.0018986,72.8313034 L21.9981014,72.8313034 C21.4423217,72.8313034 21,73.2748324 21,73.8294047 Z M20,73.8294047 C20,72.7258838 20.8867064,71.8313034 21.9981014,71.8313034 L26.0018986,71.8313034 C27.1054196,71.8313034 28,72.7180097 28,73.8294047 L28,77.833202 C28,78.9367229 27.1132936,79.8313034 26.0018986,79.8313034 L21.9981014,79.8313034 C20.8945804,79.8313034 20,78.944597 20,77.833202 L20,73.8294047 Z M20,83.8294047 C20,82.7258838 20.8867064,81.8313034 21.9981014,81.8313034 L26.0018986,81.8313034 C27.1054196,81.8313034 28,82.7180097 28,83.8294047 L28,87.833202 C28,88.9367229 27.1132936,89.8313034 26.0018986,89.8313034 L21.9981014,89.8313034 C20.8945804,89.8313034 20,88.944597 20,87.833202 L20,83.8294047 Z M21,83.8294047 L21,87.833202 C21,88.3889817 21.443529,88.8313034 21.9981014,88.8313034 L26.0018986,88.8313034 C26.5576783,88.8313034 27,88.3877743 27,87.833202 L27,83.8294047 C27,83.2736251 26.556471,82.8313034 26.0018986,82.8313034 L21.9981014,82.8313034 C21.4423217,82.8313034 21,83.2748324 21,83.8294047 Z M32.587129,71.5873201 C33.3674361,70.807013 34.6269961,70.8014452 35.412871,71.5873201 L38.2439832,74.4184323 C39.0242903,75.1987395 39.0298582,76.4582994 38.2439832,77.2441744 L35.412871,80.0752866 C34.6325639,80.8555937 33.3730039,80.8611615 32.587129,80.0752866 L29.7560168,77.2441744 C28.9757097,76.4638673 28.9701418,75.2043073 29.7560168,74.4184323 L32.587129,71.5873201 Z M30.4631235,75.1255391 C30.070128,75.5185347 30.0709817,76.1449257 30.4631235,76.5370676 L33.2942358,79.3681798 C33.6872313,79.7611754 34.3136224,79.7603217 34.7057642,79.3681798 L37.5368765,76.5370676 C37.929872,76.144072 37.9290183,75.517681 37.5368765,75.1255391 L34.7057642,72.2944269 C34.3127687,71.9014313 33.6863776,71.902285 33.2942358,72.2944269 L30.4631235,75.1255391 Z M30,83.8294047 C30,82.7258838 30.8867064,81.8313034 31.9981014,81.8313034 L36.0018986,81.8313034 C37.1054196,81.8313034 38,82.7180097 38,83.8294047 L38,87.833202 C38,88.9367229 37.1132936,89.8313034 36.0018986,89.8313034 L31.9981014,89.8313034 C30.8945804,89.8313034 30,88.944597 30,87.833202 L30,83.8294047 Z M31,83.8294047 L31,87.833202 C31,88.3889817 31.443529,88.8313034 31.9981014,88.8313034 L36.0018986,88.8313034 C36.5576783,88.8313034 37,88.3877743 37,87.833202 L37,83.8294047 C37,83.2736251 36.556471,82.8313034 36.0018986,82.8313034 L31.9981014,82.8313034 C31.4423217,82.8313034 31,83.2748324 31,83.8294047 Z" id="i-workbench-active"></path>
        </g>
    </g>
</svg>